<mxfile host="app.diagrams.net" modified="2022-04-16T16:13:11.455Z" agent="5.0 (X11; Linux x86_64) AppleWebKit/537.36 (KHTML, like Gecko) Chrome/100.0.4896.127 Safari/537.36" etag="0ef6RyiGbIt4EQSHZ06H" version="17.4.5" type="github">
  <diagram id="AI_hHYqDX8b4EK1aL_pt" name="Page-1">
    <mxGraphModel dx="-1128" dy="804" grid="1" gridSize="10" guides="1" tooltips="1" connect="1" arrows="1" fold="1" page="1" pageScale="1" pageWidth="850" pageHeight="1100" math="0" shadow="0">
      <root>
        <mxCell id="0" />
        <mxCell id="1" parent="0" />
        <mxCell id="pyO8uLmZ6v_0w5U9grTT-1" value="&lt;font style=&quot;font-size: 12px&quot; face=&quot;Helvetica&quot;&gt;Some Italian Name&lt;/font&gt;" style="rounded=0;whiteSpace=wrap;html=1;" vertex="1" parent="1">
          <mxGeometry x="2560" y="10" width="120" height="60" as="geometry" />
        </mxCell>
        <mxCell id="pyO8uLmZ6v_0w5U9grTT-2" value="TS" style="rounded=0;whiteSpace=wrap;html=1;" vertex="1" parent="1">
          <mxGeometry x="2705" y="340" width="120" height="60" as="geometry" />
        </mxCell>
        <mxCell id="pyO8uLmZ6v_0w5U9grTT-3" value="S" style="rounded=0;whiteSpace=wrap;html=1;" vertex="1" parent="1">
          <mxGeometry x="2845" y="340" width="120" height="60" as="geometry" />
        </mxCell>
        <mxCell id="pyO8uLmZ6v_0w5U9grTT-4" value="CUI" style="rounded=0;whiteSpace=wrap;html=1;" vertex="1" parent="1">
          <mxGeometry x="2985" y="340" width="120" height="60" as="geometry" />
        </mxCell>
        <mxCell id="pyO8uLmZ6v_0w5U9grTT-5" value="U" style="rounded=0;whiteSpace=wrap;html=1;" vertex="1" parent="1">
          <mxGeometry x="3125" y="340" width="120" height="60" as="geometry" />
        </mxCell>
        <mxCell id="pyO8uLmZ6v_0w5U9grTT-6" value="&lt;ul&gt;&lt;li&gt;After his performance at the &quot;lucky duck&quot; Tarun hears word of this performer&lt;/li&gt;&lt;/ul&gt;" style="rounded=0;whiteSpace=wrap;html=1;" vertex="1" parent="1">
          <mxGeometry x="2985" y="420" width="120" height="350" as="geometry" />
        </mxCell>
        <mxCell id="pyO8uLmZ6v_0w5U9grTT-7" value="&lt;ul style=&quot;text-align: -webkit-left&quot;&gt;&lt;li style=&quot;text-align: left&quot;&gt;Lord Strahd attacked the village looking for a healer&lt;/li&gt;&lt;/ul&gt;" style="rounded=0;whiteSpace=wrap;html=1;" vertex="1" parent="1">
          <mxGeometry x="2845" y="420" width="120" height="470" as="geometry" />
        </mxCell>
        <mxCell id="pyO8uLmZ6v_0w5U9grTT-8" value="" style="rounded=0;whiteSpace=wrap;html=1;" vertex="1" parent="1">
          <mxGeometry x="2705" y="420" width="120" height="350" as="geometry" />
        </mxCell>
        <mxCell id="pyO8uLmZ6v_0w5U9grTT-9" value="&lt;div align=&quot;left&quot;&gt;&lt;ul&gt;&lt;li style=&quot;text-align: left&quot;&gt;Grown up in elven city by the coast&lt;/li&gt;&lt;li style=&quot;text-align: left&quot;&gt;Village was attacked by an unknown group&lt;/li&gt;&lt;li style=&quot;text-align: left&quot;&gt;Dad stayed and fought but was never seen again&lt;/li&gt;&lt;li style=&quot;text-align: left&quot;&gt;Separated from mom and sister while fleeing&amp;nbsp;&lt;/li&gt;&lt;li style=&quot;text-align: left&quot;&gt;Became a bard to earn money and to gain fame in hopes of finding his family&amp;nbsp;&lt;/li&gt;&lt;/ul&gt;&lt;/div&gt;" style="rounded=0;whiteSpace=wrap;html=1;" vertex="1" parent="1">
          <mxGeometry x="3125" y="420" width="120" height="480" as="geometry" />
        </mxCell>
        <mxCell id="pyO8uLmZ6v_0w5U9grTT-10" value="&lt;ul&gt;&lt;li&gt;Half Elf&lt;/li&gt;&lt;/ul&gt;" style="rounded=0;whiteSpace=wrap;html=1;" vertex="1" parent="1">
          <mxGeometry x="2705" y="10" width="305" height="300" as="geometry" />
        </mxCell>
        <mxCell id="pyO8uLmZ6v_0w5U9grTT-12" value="" style="shape=image;verticalLabelPosition=bottom;labelBackgroundColor=default;verticalAlign=top;aspect=fixed;imageAspect=0;image=https://i.redd.it/u772yx2h5vz21.jpg;" vertex="1" parent="1">
          <mxGeometry x="3075.5" y="10" width="219" height="317.21" as="geometry" />
        </mxCell>
      </root>
    </mxGraphModel>
  </diagram>
</mxfile>
